<?xml version="1.0" encoding="utf-8"?>
<!-- Generator: Adobe Illustrator 19.0.0, SVG Export Plug-In . SVG Version: 6.00 Build 0)  -->
<svg version="1.1" id="Layer_1" xmlns="http://www.w3.org/2000/svg" xmlns:xlink="http://www.w3.org/1999/xlink" x="0px" y="0px"
	 viewBox="0 0 100 100" style="enable-background:new 0 0 100 100;" xml:space="preserve">
<path id="XMLID_6_" class="st0" d="M17.7,70.8L17.7,70.8z"/>
<path id="XMLID_12_" class="st1" d="M50,0C22.4,0,0,22.4,0,50c0,14.6,6.2,27.7,16.2,36.8V66.1c1.4,0.5,2.9,0.8,4.4,0.8
	c0.5,0,0.9,0,1.4-0.1v16.1h33.6V66.1c1.3,0.4,2.6,0.7,4.1,0.7c0.6,0,1.2-0.1,1.7-0.2v31.8h1.2c5.5-1.4,10.6-3.8,15.2-6.8V66.7
	c0.5,0.1,0.9,0.1,1.5,0.2c1.6,0,3-0.3,4.4-0.8v20.8C93.7,77.8,100,64.6,100,50C100,22.4,77.6,0,50,0z M27.1,79
	c-0.7-0.7-0.7-1.8,0-2.5l8.4-8.4c0.7-0.7,1.8-0.7,2.5,0s0.7,1.8,0,2.5L29.6,79C28.9,79.6,27.8,79.6,27.1,79z M48.6,70.6L40.2,79
	c-0.7,0.7-1.8,0.7-2.5,0c-0.7-0.7-0.7-1.8,0-2.5l8.4-8.4c0.7-0.7,1.8-0.7,2.5,0S49.3,69.9,48.6,70.6z M79.4,63.9
	c-5.4,0-9.8-4.4-9.8-9.8c0,5.4-4.4,9.8-9.8,9.8c-5.4,0-9.8-4.4-9.8-9.8c0,5.4-4.4,9.8-9.8,9.8s-9.8-4.4-9.8-9.8
	c0,5.4-4.4,9.8-9.8,9.8s-9.8-4.4-9.8-9.8c0-2.3,0.4-4.6,1.2-6.7l5.8-15.5c0.5-1.3,1.7-2.1,3.1-2.1h57.9c1.4,0,2.6,0.8,3.1,2.1
	l5.8,15.5c0.8,2.1,1.2,4.4,1.4,6.7C89.2,59.6,84.8,63.9,79.4,63.9z"/>
</svg>
