<?xml version="1.0" encoding="utf-8"?>
<!-- Generator: Adobe Illustrator 19.0.0, SVG Export Plug-In . SVG Version: 6.00 Build 0)  -->
<svg version="1.1" id="Layer_1" xmlns="http://www.w3.org/2000/svg" xmlns:xlink="http://www.w3.org/1999/xlink" x="0px" y="0px"
	 viewBox="0 0 100 100" style="enable-background:new 0 0 100 100;" xml:space="preserve">
<path id="XMLID_6_" class="st0" d="M97.1,54.7c-1.3-2.6-1.3-6.8,0-9.4l2.3-4.5c1.3-2.6,0.4-6-2-7.6l-4.2-2.7
	c-2.4-1.6-4.5-5.2-4.7-8.1l-0.3-5c-0.1-2.9-2.6-5.4-5.5-5.5l-5-0.3c-2.9-0.1-6.6-2.3-8.1-4.7l-2.7-4.2c-1.6-2.4-5-3.3-7.6-2
	l-4.5,2.3c-2.6,1.3-6.8,1.3-9.4,0l-4.5-2.3c-2.6-1.3-6-0.4-7.6,2l-2.7,4.2c-1.6,2.4-5.2,4.5-8.1,4.7l-5,0.3
	c-2.9,0.1-5.4,2.6-5.5,5.5l-0.3,5c-0.1,2.9-2.3,6.6-4.7,8.1l-4.2,2.7c-2.4,1.6-3.3,5-2,7.6l2.3,4.5c1.3,2.6,1.3,6.8,0,9.4l-2.3,4.5
	c-1.3,2.6-0.4,6,2,7.6l4.2,2.7c2.4,1.6,4.5,5.2,4.7,8.1l0.3,5c0.1,2.9,2.6,5.4,5.5,5.5l5,0.3c2.9,0.1,6.6,2.3,8.1,4.7l2.7,4.2
	c1.6,2.4,5,3.3,7.6,2l4.5-2.3c2.6-1.3,6.8-1.3,9.4,0l4.5,2.3c2.6,1.3,6,0.4,7.6-2l2.7-4.2c1.6-2.4,5.2-4.5,8.1-4.7l5-0.3
	c2.9-0.1,5.4-2.6,5.5-5.5l0.3-5c0.1-2.9,2.3-6.6,4.7-8.1l4.2-2.7c2.4-1.6,3.3-5,2-7.6L97.1,54.7z M60.8,54.8l2.6,14.9l-13.4-7
	l-13.4,7l2.6-14.9L28.4,44.3l14.9-2.2L50,28.6l6.7,13.5l14.9,2.2L60.8,54.8z"/>
</svg>
