<?xml version="1.0" encoding="utf-8"?>
<!-- Generator: Adobe Illustrator 19.0.0, SVG Export Plug-In . SVG Version: 6.00 Build 0)  -->
<svg version="1.1" id="Layer_1" xmlns="http://www.w3.org/2000/svg" xmlns:xlink="http://www.w3.org/1999/xlink" x="0px" y="0px"
	 viewBox="0 0 100 100" style="enable-background:new 0 0 100 100;" xml:space="preserve">
<path id="XMLID_6_" class="st0" d="M17.7,70.8L17.7,70.8z"/>
<path id="XMLID_11_" class="st1" d="M17.7,70.8h0.6h10.4h8.4c-4.3,1-7.2,4.6-7.3,9.5c0,0.3,0,0.7,0,1c0,2.9,0,8,0,10.9
	c0,0.1,0,1.6,0,3.5c3.5,1.5,7.2,2.7,11,3.4c0-7.3,0-18.3,0-21c0.1-7.2,4.9-12.1,12.1-12.2h0.3c4.4,0,8.8,0,13.2,0
	c4.4,0,8.8,0,13.2,0H80c6.8,0.1,11.5,4.5,12,11.2c5-7.8,8-17.1,8-27.1c0-27.6-22.4-50-50-50S0,22.4,0,50c0,10.2,3.1,19.7,8.3,27.6
	C9.5,73.4,13,70.8,17.7,70.8z M66.5,27c9.2,0,16.6,7.6,16.6,16.7c0,9.1-7.4,16.5-16.6,16.5c-9.2-0.1-16.6-7.6-16.6-16.8
	C49.9,34.3,57.4,26.9,66.5,27z M28.9,38L28.9,38c7.8,0.1,14,6.4,13.9,14.1c0,7.8-6.4,14-14.1,13.9c-7.7,0-13.9-6.4-13.8-14.2
	C14.9,44.2,21.2,38,28.9,38z"/>
</svg>
