<?xml version="1.0" encoding="utf-8"?>
<!-- Generator: Adobe Illustrator 16.0.0, SVG Export Plug-In . SVG Version: 6.00 Build 0)  -->
<!DOCTYPE svg PUBLIC "-//W3C//DTD SVG 1.1//EN" "http://www.w3.org/Graphics/SVG/1.1/DTD/svg11.dtd">
<svg version="1.1" id="圖層_1" xmlns="http://www.w3.org/2000/svg" xmlns:xlink="http://www.w3.org/1999/xlink" x="0px" y="0px"
	 width="300px" height="150px" viewBox="0 0 300 150" enable-background="new 0 0 300 150" xml:space="preserve">
<g>
	<g>
		<circle fill="#FFFFFF" cx="237.5" cy="46.212" r="25.94"/>
		<circle fill="#FFFFFF" cx="120.771" cy="101.694" r="13.806"/>
	</g>
	<g opacity="0.8">
		<path fill="#E66428" d="M32.697,41.118c0.152-0.304,0.329-0.684,0.532-1.14c0.202-0.456,0.481-0.76,0.836-0.912
			c0.811-0.456,1.938-0.684,3.382-0.684c1.444,0,2.698,0.228,3.763,0.684c0.657,0.355,1.075,0.684,1.254,0.988
			c0.177,0.304,0.442,1.216,0.798,2.736c0.152,0.608,0.266,1.28,0.342,2.014c0.076,0.735,0.139,1.862,0.19,3.382
			c0.05,1.52,0.088,3.623,0.113,6.308c0.025,2.686,0.038,6.258,0.038,10.716c-0.102,4.966-0.165,8.778-0.189,11.438
			c-0.026,2.66-0.026,4.598,0,5.813c0.024,1.216,0.101,1.888,0.228,2.015c0.126,0.127,0.343,0.14,0.646,0.037
			c0.304,0,0.848-0.049,1.634-0.151c0.785-0.101,1.71-0.152,2.774-0.152c3.697-0.253,5.496,0.304,5.396,1.673
			c-0.152,0.506-0.418,0.924-0.798,1.254s-1.254,0.824-2.622,1.481c-2.078,1.216-4.535,2.04-7.372,2.47
			c-2.838,0.432-5.346,0.293-7.523-0.418c-2.129-0.304-3.51-1.406-4.143-3.306c-0.634-1.9-0.95-4.647-0.95-8.246
			c-0.102-3.09-0.113-6.688-0.038-10.792c0.076-4.104,0.19-8.056,0.343-11.856c0.151-3.8,0.342-7.131,0.569-9.994
			C32.128,43.614,32.394,41.828,32.697,41.118z"/>
		<path fill="#E66428" d="M57.397,58.142c0.152-0.152,0.57-0.468,1.254-0.95c0.685-0.481,1.355-0.823,2.015-1.026
			c2.025-1.013,3.762-1.608,5.206-1.786c1.443-0.177,2.685-0.114,3.724,0.19c1.038,0.304,1.874,0.748,2.508,1.33
			c0.633,0.583,1.179,1.102,1.634,1.558c1.673,2.078,1.938,4.117,0.799,6.118c-1.141,2.002-3.357,3.509-6.65,4.522
			c-1.063,0.456-1.837,0.824-2.318,1.102c-0.481,0.279-0.722,1.254-0.722,2.926c0.354,4.054,1.317,7.246,2.888,9.576
			c0.608,1.063,1.279,1.66,2.015,1.786c0.733,0.127,1.658,0.113,2.773-0.038c0.962-0.506,1.9-0.976,2.813-1.406
			c0.912-0.43,1.368,0.165,1.368,1.786c0,1.52-0.874,2.838-2.622,3.952s-3.637,1.672-5.662,1.672c-2.687,0-4.826-0.253-6.422-0.761
			c-1.597-0.506-3.002-1.493-4.219-2.963c-2.128-2.129-3.433-4.686-3.913-7.676c-0.482-2.99-0.559-5.877-0.229-8.665
			c0.329-2.786,0.899-5.244,1.71-7.372C56.155,59.89,56.84,58.598,57.397,58.142z M69.481,61.182c0-0.608-0.025-1.203-0.075-1.786
			c-0.052-0.582-0.152-0.975-0.305-1.178c-0.659-0.76-1.508-1.064-2.546-0.912c-1.039,0.152-1.761,0.735-2.166,1.748
			c-0.203,0.456-0.368,1.508-0.494,3.154c-0.127,1.647-0.089,2.774,0.114,3.382c0.152,0.203,0.456,0.317,0.912,0.342
			c0.456,0.026,0.912-0.063,1.368-0.266c1.216-0.608,2.052-1.241,2.508-1.9C69.254,63.108,69.481,62.246,69.481,61.182z"/>
		<path fill="#E66428" d="M80.653,66.35c-1.014-4.104-1.52-6.852-1.52-8.246c0-1.393,0.506-2.292,1.52-2.698
			c0.557-0.354,1.634-0.544,3.23-0.57c1.596-0.025,2.596,0.038,3.002,0.19c0.151,0.203,0.392,0.494,0.722,0.874
			c0.329,0.38,0.595,0.749,0.798,1.102c0.253,0.406,0.62,1.229,1.103,2.47c0.48,1.242,0.987,2.622,1.52,4.142
			s1.026,3.066,1.482,4.636c0.456,1.571,0.784,2.888,0.987,3.952c0.152,1.014,0.405,2.179,0.761,3.496
			c0.151,0,0.328-0.329,0.531-0.988c0.202-0.658,0.405-1.368,0.608-2.128c0.354-1.368,0.785-2.9,1.292-4.598
			c0.506-1.697,1-3.355,1.482-4.978c0.48-1.621,0.937-3.052,1.367-4.294c0.431-1.241,0.747-2.063,0.95-2.47
			c1.368-1.773,2.686-2.242,3.952-1.406c1.266,0.836,1.9,1.938,1.9,3.306c0,0.507-0.292,2.027-0.874,4.56
			c-0.583,2.534-1.242,5.257-1.977,8.17c-0.734,2.914-1.405,5.638-2.014,8.17c-0.608,2.534-0.938,4.028-0.988,4.483
			c-0.607,3.143-1.052,5.081-1.33,5.814c-0.278,0.735-1.001,1.381-2.166,1.938c-3.547,0.962-6.231,1.14-8.056,0.532
			c-1.824-0.608-2.914-1.293-3.268-2.053c-0.203-0.557-0.57-1.976-1.103-4.256c-0.532-2.279-1.077-4.736-1.634-7.372
			c-0.559-2.634-1.064-5.104-1.521-7.41C80.957,68.415,80.703,66.958,80.653,66.35z"/>
		<path fill="#E66428" d="M111.89,58.142c0.152-0.152,0.57-0.468,1.254-0.95c0.685-0.481,1.355-0.823,2.015-1.026
			c2.025-1.013,3.762-1.608,5.206-1.786c1.443-0.177,2.685-0.114,3.724,0.19c1.038,0.304,1.874,0.748,2.508,1.33
			c0.633,0.583,1.179,1.102,1.634,1.558c1.673,2.078,1.938,4.117,0.799,6.118c-1.141,2.002-3.357,3.509-6.65,4.522
			c-1.063,0.456-1.837,0.824-2.318,1.102c-0.481,0.279-0.722,1.254-0.722,2.926c0.354,4.054,1.317,7.246,2.888,9.576
			c0.608,1.063,1.279,1.66,2.015,1.786c0.733,0.127,1.658,0.113,2.773-0.038c0.962-0.506,1.9-0.976,2.813-1.406
			c0.912-0.43,1.368,0.165,1.368,1.786c0,1.52-0.874,2.838-2.622,3.952s-3.637,1.672-5.662,1.672c-2.687,0-4.826-0.253-6.422-0.761
			c-1.597-0.506-3.002-1.493-4.219-2.963c-2.128-2.129-3.433-4.686-3.913-7.676c-0.482-2.99-0.559-5.877-0.229-8.665
			c0.329-2.786,0.899-5.244,1.71-7.372C110.647,59.89,111.332,58.598,111.89,58.142z M123.974,61.182
			c0-0.608-0.025-1.203-0.075-1.786c-0.052-0.582-0.152-0.975-0.305-1.178c-0.659-0.76-1.508-1.064-2.546-0.912
			c-1.039,0.152-1.761,0.735-2.166,1.748c-0.203,0.456-0.368,1.508-0.494,3.154c-0.127,1.647-0.089,2.774,0.114,3.382
			c0.152,0.203,0.456,0.317,0.912,0.342c0.456,0.026,0.912-0.063,1.368-0.266c1.216-0.608,2.052-1.241,2.508-1.9
			C123.746,63.108,123.974,62.246,123.974,61.182z"/>
		<path fill="#E66428" d="M136.133,39.978c0-0.202,0.177-0.43,0.532-0.684c0.354-0.253,0.658-0.506,0.912-0.76
			c0.709-0.202,1.798-0.291,3.268-0.266c1.469,0.026,2.584,0.266,3.345,0.722c1.013,0.507,1.798,1.47,2.355,2.888
			c0.202,0.507,0.367,1.09,0.494,1.748c0.126,0.659,0.215,1.672,0.266,3.04c0.05,1.368,0.088,3.281,0.114,5.738
			c0.025,2.458,0.038,5.738,0.038,9.842c0,4.155,0.012,7.512,0.038,10.07c0.024,2.559,0.088,4.612,0.189,6.157
			s0.216,2.787,0.343,3.724c0.126,0.938,0.266,1.862,0.418,2.774c0.456,1.926,0.695,3.153,0.722,3.686
			c0.025,0.531-0.064,1.025-0.266,1.482c-0.964,0.861-2.003,1.381-3.116,1.558c-1.115,0.178-2.204,0.19-3.269,0.038
			c-1.063-0.152-2.002-0.43-2.812-0.836c-0.812-0.405-1.368-0.811-1.672-1.217c-0.608-0.657-1.115-1.379-1.521-2.166
			c-0.406-0.785-0.71-1.873-0.912-3.268c-0.203-1.393-0.33-3.23-0.38-5.51c-0.051-2.28-0.076-5.269-0.076-8.968
			c0-3.749,0.013-7.384,0.038-10.906c0.025-3.521,0.088-6.65,0.19-9.386c0.101-2.736,0.215-4.965,0.342-6.688
			C135.841,41.068,135.981,40.13,136.133,39.978z"/>
		<path fill="#E66428" d="M198.604,49.706c0.151-4.56,0.291-7.486,0.418-8.778c0.126-1.292,0.544-2.115,1.254-2.47
			c0.456-0.152,1.279-0.177,2.47-0.076c1.19,0.102,1.963,0.228,2.318,0.38c0.202,0.304,0.38,0.71,0.532,1.216
			c0.151,0.507,0.291,1.419,0.418,2.736c0.126,1.318,0.228,3.143,0.304,5.472c0.076,2.331,0.114,5.447,0.114,9.348
			c0.05,5.067,0.075,9.07,0.075,12.008c0,2.939-0.075,5.295-0.228,7.067c-0.152,1.775-0.406,3.193-0.76,4.257
			c-0.355,1.063-0.836,2.229-1.444,3.496c-1.063,2.382-2.572,4.116-4.521,5.206c-1.951,1.09-3.979,1.785-6.08,2.09
			c-2.104,0.304-4.079,0.38-5.929,0.229c-1.85-0.152-3.18-0.33-3.989-0.533c-2.078-0.455-3.623-1.215-4.637-2.279
			s-1.85-2.813-2.508-5.244c-0.354-1.064-0.621-3.725-0.798-7.98c-0.178-4.256-0.266-8.765-0.266-13.528
			c0-4.762,0.088-9.158,0.266-13.186c0.177-4.028,0.443-6.346,0.798-6.954c0.304-0.658,0.95-1.203,1.938-1.634
			c0.987-0.43,2.166-0.57,3.534-0.418c1.367,0,2.47,0.14,3.306,0.418c0.836,0.279,1.431,0.824,1.786,1.634
			c0.304,0.71,0.569,2.673,0.798,5.89c0.228,3.218,0.418,7.968,0.57,14.25c0.151,5.32,0.328,9.716,0.531,13.186
			c0.202,3.47,0.481,5.789,0.836,6.954c0.152,1.216,0.381,2.128,0.685,2.736s0.532,0.836,0.684,0.685
			c1.672-0.861,2.9-1.875,3.687-3.041c0.784-1.164,1.33-2.443,1.634-3.838c0.304-1.393,0.494-2.888,0.57-4.484
			c0.075-1.596,0.266-3.255,0.569-4.978c0.202-2.28,0.367-4.142,0.494-5.586c0.126-1.444,0.229-2.824,0.304-4.142
			c0.076-1.317,0.14-2.723,0.19-4.218C198.578,54.102,198.604,52.138,198.604,49.706z"/>
		<path fill="#E66428" d="M211.903,64.982c0.456-3.09,0.836-5.256,1.141-6.498c0.304-1.241,0.709-2.242,1.216-3.002
			c0.456-0.456,1.418-0.684,2.888-0.684c1.469,0,2.584,0.228,3.344,0.684c0.456,0.254,0.962,1.052,1.521,2.394
			c0.557,1.343,0.836,2.597,0.836,3.762c0,0.76,0.038,1.14,0.114,1.14s0.366-0.38,0.874-1.14c0.912-0.912,1.811-1.507,2.697-1.786
			c0.887-0.278,2.064-0.468,3.534-0.57c1.925-0.05,3.395,0.266,4.408,0.95c1.013,0.684,1.748,1.533,2.204,2.546
			c0.456,1.014,0.684,2.078,0.684,3.192c0,1.115-0.051,2.078-0.151,2.888c-0.152,1.672-0.621,3.433-1.406,5.282
			c-0.786,1.85-1.774,3.584-2.964,5.206c-1.191,1.623-2.496,3.028-3.914,4.219c-1.419,1.191-2.813,2.014-4.18,2.47
			c-1.217,0.507-1.989,0.849-2.318,1.026c-0.33,0.178-0.494,0.621-0.494,1.33c-0.152,1.773-0.228,3.762-0.228,5.965
			c0,2.205,0.05,4.295,0.151,6.271s0.215,3.687,0.342,5.13c0.126,1.444,0.19,2.242,0.19,2.395c-1.115,1.013-2.863,1.494-5.244,1.443
			c-1.926,0.202-3.319-0.051-4.18-0.76c-0.862-0.71-1.395-1.9-1.596-3.572c-0.406-1.216-0.673-3.457-0.799-6.726
			c-0.127-3.269-0.165-6.89-0.113-10.868c0.05-3.977,0.201-8.029,0.456-12.16C211.169,71.379,211.497,67.87,211.903,64.982z
			 M228.092,71.67c0.76-1.57,0.937-4.104,0.532-7.6c-0.508,0-1.28,1.039-2.318,3.116c-1.039,2.078-2.014,4.054-2.926,5.928
			c-0.305,0.76-0.57,1.609-0.798,2.546c-0.229,0.938-0.406,1.813-0.532,2.622c-0.127,0.812-0.179,1.47-0.152,1.976
			c0.025,0.508,0.19,0.684,0.494,0.532c0.202-0.101,0.557-0.519,1.064-1.254c0.506-0.733,1.063-1.569,1.672-2.508
			c0.607-0.937,1.178-1.912,1.71-2.926C227.369,73.089,227.788,72.278,228.092,71.67z"/>
	</g>
</g>
</svg>
