<?xml version="1.0" encoding="utf-8"?>
<!-- Generator: Adobe Illustrator 16.0.0, SVG Export Plug-In . SVG Version: 6.00 Build 0)  -->
<!DOCTYPE svg PUBLIC "-//W3C//DTD SVG 1.1//EN" "http://www.w3.org/Graphics/SVG/1.1/DTD/svg11.dtd">
<svg version="1.1" id="圖層_1" xmlns="http://www.w3.org/2000/svg" xmlns:xlink="http://www.w3.org/1999/xlink" x="0px" y="0px"
	 width="100px" height="100px" viewBox="0 0 100 100" enable-background="new 0 0 100 100" xml:space="preserve">
<g>
	<path fill-rule="evenodd" clip-rule="evenodd" fill="#737270" d="M88.434,41.639L88.434,41.639
		c-2.455-2.581-6.132-4.292-10.061-4.538H10.445c-0.243,1.225-0.49,2.694-0.49,3.929c2.083-0.374,4.657-0.619,7.478-0.619h60.94
		C82.421,40.412,85.979,40.902,88.434,41.639L88.434,41.639z"/>
	<path fill-rule="evenodd" clip-rule="evenodd" fill="#737270" d="M44.407,78.18L44.407,78.18c11.04,0,20.853-5.141,27.226-13.242
		c1.846,0.856,3.925,1.347,6.255,1.347c7.973,0,14.475-6.498,14.475-14.59c0-2.452-0.49-4.538-1.479-6.618
		c-1.104,0.854-3.553,1.225-6.616,1.472c1.104,1.47,1.712,3.184,1.712,5.146c0,4.539-3.677,8.216-8.091,8.216
		c-0.984,0-1.959-0.124-2.696-0.366c1.959-3.919,3.182-8.213,3.682-12.751c-0.124,0-0.248,0-0.5,0h-60.94
		c-2.821,0-5.394-0.128-7.478-0.371C11.425,64.206,26.261,78.18,44.407,78.18L44.407,78.18z"/>
	<polygon fill-rule="evenodd" clip-rule="evenodd" fill="#737270" points="83.039,80.758 8.357,80.758 8.357,86.404 17.066,86.404 
		17.066,92.164 74.335,92.164 74.335,86.404 83.039,86.404 	"/>
	<path fill-rule="evenodd" clip-rule="evenodd" fill="#737270" d="M35.227,9.62c0,0-7.472,5.342-1.762,11.052
		c5.716,5.718-0.02,12.876-1.91,12.876c0,0-2.078-1.568-1.39-2.419c1.232-1.524,2.598-3.808,2.182-5.805
		c-0.742-3.598-3.405-4.211-4.028-6.369c-1.405-4.879,1.242-9.239,3.999-11.199C32.317,7.757,36.098,6.208,35.227,9.62z"/>
	<path fill-rule="evenodd" clip-rule="evenodd" fill="#737270" d="M48.489,9.62c0,0-7.478,5.342-1.767,11.052
		c5.715,5.718-0.02,12.876-1.905,12.876c0,0-2.079-1.568-1.396-2.419c1.232-1.524,2.598-3.808,2.182-5.805
		c-0.742-3.598-3.404-4.211-4.028-6.369c-1.405-4.879,1.242-9.239,3.998-11.199C45.574,7.757,49.355,6.208,48.489,9.62z"/>
</g>
<g display="none">
	<path display="inline" fill-rule="evenodd" clip-rule="evenodd" fill="#737270" d="M72.344,35.748l-4.438,59.412
		c-0.121,1.439-1.318,2.765-2.879,2.765h-27.73c-1.56,0-2.758-1.325-2.879-2.765l-4.56-59.412h-0.605c-1.796,0-3.472,0-3.357-0.239
		l5.522-6.002c0.236-0.242,1.561-0.242,3.363-0.242h32.761c1.809,0,3.127,0,3.368,0.242l5.517,6.002
		c0,0.239-1.561,0.239-3.363,0.239H72.344z"/>
	<path display="inline" fill-rule="evenodd" clip-rule="evenodd" fill="#737270" d="M36.939,23.025h28.323
		c1.445,0,2.521,1.198,2.521,2.516l0,0c0,1.445-1.076,2.524-2.521,2.524H36.939c-1.324,0-2.401-1.079-2.401-2.524l0,0
		C34.539,24.223,35.616,23.025,36.939,23.025L36.939,23.025z"/>
	<path display="inline" fill-rule="evenodd" clip-rule="evenodd" fill="#737270" d="M60.943,88.083
		c-0.121,1.078-0.962,2.033-2.038,2.033H43.423c-1.088,0-1.923-0.955-2.044-2.033l-4.318-48.256h28.202L60.943,88.083z"/>
	<path display="inline" fill-rule="evenodd" clip-rule="evenodd" fill="#737270" d="M49.658,22.306l3.847-14.403
		c0.241-0.602,0.719-1.083,1.439-1.203l12.598-4.563c0.847-0.236,1.809,0.239,2.159,1.085l0,0c0.242,0.841-0.236,1.796-1.076,2.159
		l-12.12,4.321l-3.363,12.604H49.658z"/>
	<path display="inline" fill="#FFFFFF" d="M62.142,88.563c-0.115,0.837-0.472,1.439-0.956,2.036l0,0
		c-0.478,0.48-1.204,0.718-1.923,0.718l0,0H43.06l0,0c-0.725,0-1.445-0.237-1.917-0.84c-0.483-0.475-0.846-1.198-0.961-1.914l0,0
		L35.616,39.23v-0.725h0.719h29.652h0.721v0.725L62.142,88.563L62.142,88.563z M60.104,89.519c0.362-0.239,0.483-0.716,0.604-1.079
		l4.438-48.489H37.176l4.439,48.489h0.121c0,0.48,0.121,0.84,0.363,1.079c0.236,0.241,0.605,0.363,0.961,0.363l0,0h16.203l0,0
		C59.625,89.882,59.867,89.76,60.104,89.519L60.104,89.519z"/>
	<path display="inline" fill-rule="evenodd" clip-rule="evenodd" fill="#FFFFFF" d="M46.405,43.541c2.914,0,5.332,2.332,5.332,5.242
		c0,3-2.418,5.326-5.332,5.326c-2.907,0-5.326-2.326-5.326-5.326C41.08,45.872,43.498,43.541,46.405,43.541L46.405,43.541z"/>
	<path display="inline" fill-rule="evenodd" clip-rule="evenodd" fill="#FFFFFF" d="M54.996,58.26c2.907,0,5.326,2.427,5.326,5.334
		c0,2.912-2.419,5.332-5.326,5.332c-2.913,0-5.338-2.326-5.338-5.332C49.762,60.687,52.083,58.26,54.996,58.26L54.996,58.26z"/>
	<path display="inline" fill-rule="evenodd" clip-rule="evenodd" fill="#FFFFFF" d="M48.542,74.592c2.908,0,5.326,2.33,5.326,5.23
		c0,2.912-2.418,5.334-5.326,5.334s-5.332-2.422-5.332-5.334C43.21,76.922,45.634,74.592,48.542,74.592L48.542,74.592z"/>
</g>
</svg>
