<?xml version="1.0" encoding="utf-8"?>
<!-- Generator: Adobe Illustrator 16.0.0, SVG Export Plug-In . SVG Version: 6.00 Build 0)  -->
<!DOCTYPE svg PUBLIC "-//W3C//DTD SVG 1.1//EN" "http://www.w3.org/Graphics/SVG/1.1/DTD/svg11.dtd">
<svg version="1.1" id="圖層_1" xmlns="http://www.w3.org/2000/svg" xmlns:xlink="http://www.w3.org/1999/xlink" x="0px" y="0px"
	 width="100px" height="100px" viewBox="0 0 100 100" enable-background="new 0 0 100 100" xml:space="preserve">
<g display="none">
	<path display="inline" fill-rule="evenodd" clip-rule="evenodd" fill="#737270" d="M72.344,35.748l-4.438,59.412
		c-0.121,1.439-1.318,2.765-2.879,2.765h-27.73c-1.56,0-2.758-1.325-2.879-2.765l-4.56-59.412h-0.605c-1.796,0-3.472,0-3.357-0.239
		l5.522-6.002c0.236-0.242,1.561-0.242,3.363-0.242h32.761c1.809,0,3.127,0,3.368,0.242l5.517,6.002
		c0,0.239-1.561,0.239-3.363,0.239H72.344z"/>
	<path display="inline" fill-rule="evenodd" clip-rule="evenodd" fill="#737270" d="M36.939,23.025h28.323
		c1.445,0,2.521,1.198,2.521,2.516l0,0c0,1.445-1.076,2.524-2.521,2.524H36.939c-1.324,0-2.401-1.079-2.401-2.524l0,0
		C34.539,24.223,35.616,23.025,36.939,23.025L36.939,23.025z"/>
	<path display="inline" fill-rule="evenodd" clip-rule="evenodd" fill="#737270" d="M60.943,88.083
		c-0.121,1.078-0.962,2.033-2.038,2.033H43.423c-1.088,0-1.923-0.955-2.044-2.033l-4.318-48.256h28.202L60.943,88.083z"/>
	<path display="inline" fill-rule="evenodd" clip-rule="evenodd" fill="#737270" d="M49.658,22.306l3.847-14.403
		c0.241-0.602,0.719-1.083,1.439-1.203l12.598-4.563c0.847-0.236,1.809,0.239,2.159,1.085l0,0c0.242,0.841-0.236,1.796-1.076,2.159
		l-12.12,4.321l-3.363,12.604H49.658z"/>
	<path display="inline" fill="#FFFFFF" d="M62.142,88.563c-0.115,0.837-0.472,1.439-0.956,2.036l0,0
		c-0.478,0.48-1.204,0.718-1.923,0.718l0,0H43.06l0,0c-0.725,0-1.445-0.237-1.917-0.84c-0.483-0.475-0.846-1.198-0.961-1.914l0,0
		L35.616,39.23v-0.725h0.719h29.652h0.721v0.725L62.142,88.563L62.142,88.563z M60.104,89.519c0.362-0.239,0.483-0.716,0.604-1.079
		l4.438-48.489H37.176l4.439,48.489h0.121c0,0.48,0.121,0.84,0.363,1.079c0.236,0.241,0.605,0.363,0.961,0.363l0,0h16.203l0,0
		C59.625,89.882,59.867,89.76,60.104,89.519L60.104,89.519z"/>
	<path display="inline" fill-rule="evenodd" clip-rule="evenodd" fill="#FFFFFF" d="M46.405,43.541c2.914,0,5.332,2.332,5.332,5.242
		c0,3-2.418,5.326-5.332,5.326c-2.907,0-5.326-2.326-5.326-5.326C41.08,45.872,43.498,43.541,46.405,43.541L46.405,43.541z"/>
	<path display="inline" fill-rule="evenodd" clip-rule="evenodd" fill="#FFFFFF" d="M54.996,58.26c2.907,0,5.326,2.427,5.326,5.334
		c0,2.912-2.419,5.332-5.326,5.332c-2.913,0-5.338-2.326-5.338-5.332C49.762,60.687,52.083,58.26,54.996,58.26L54.996,58.26z"/>
	<path display="inline" fill-rule="evenodd" clip-rule="evenodd" fill="#FFFFFF" d="M48.542,74.592c2.908,0,5.326,2.33,5.326,5.23
		c0,2.912-2.418,5.334-5.326,5.334s-5.332-2.422-5.332-5.334C43.21,76.922,45.634,74.592,48.542,74.592L48.542,74.592z"/>
</g>
<g>
	<path fill-rule="evenodd" clip-rule="evenodd" fill="none" stroke="#737270" stroke-miterlimit="10" d="M66.625,36.984
		l-3.903,52.228c-0.101,1.264-1.159,2.428-2.53,2.428H35.814c-1.372,0-2.424-1.164-2.525-2.428l-4.014-52.228h-0.526
		c-1.584,0-3.057,0-2.956-0.215l4.854-5.277c0.212-0.21,1.372-0.21,2.956-0.21h28.806c1.579,0,2.744,0,2.956,0.21l4.849,5.277
		c0,0.215-1.371,0.215-2.956,0.215H66.625z"/>
	<path fill-rule="evenodd" clip-rule="evenodd" fill="none" stroke="#737270" stroke-miterlimit="10" d="M35.5,25.795h24.898
		c1.271,0,2.223,1.055,2.223,2.214l0,0c0,1.271-0.951,2.22-2.223,2.22H35.5c-1.165,0-2.111-0.949-2.111-2.22l0,0
		C33.39,26.85,34.336,25.795,35.5,25.795L35.5,25.795z"/>
	<path fill-rule="evenodd" clip-rule="evenodd" fill="none" stroke="#737270" stroke-miterlimit="10" d="M56.604,82.987
		c-0.107,0.948-0.847,1.795-1.793,1.795H41.194c-0.951,0-1.685-0.847-1.792-1.795l-3.796-42.42h24.792L56.604,82.987z"/>
	<path fill-rule="evenodd" clip-rule="evenodd" fill="none" stroke="#737270" stroke-miterlimit="10" d="M46.682,25.165l3.38-12.662
		c0.207-0.529,0.633-0.952,1.266-1.058l11.08-4.012c0.739-0.208,1.579,0.212,1.893,0.954l0,0c0.218,0.739-0.207,1.58-0.945,1.898
		l-10.656,3.799l-2.955,11.08H46.682z"/>
	<path fill="none" d="M57.655,83.409c-0.102,0.739-0.415,1.267-0.84,1.79l0,0c-0.42,0.425-1.059,0.634-1.691,0.634l0,0H40.886l0,0
		c-0.643,0-1.271-0.209-1.696-0.737c-0.42-0.42-0.738-1.054-0.84-1.687l0,0l-4.014-43.366v-0.638h0.633h26.068h0.633v0.638
		L57.655,83.409L57.655,83.409z M55.863,84.252c0.319-0.21,0.42-0.63,0.532-0.949l3.901-42.626H35.708l3.908,42.626h0.101
		c0,0.423,0.106,0.739,0.319,0.949c0.208,0.21,0.531,0.318,0.85,0.318l0,0h14.238l0,0C55.443,84.57,55.656,84.462,55.863,84.252
		L55.863,84.252z"/>
	<path fill-rule="evenodd" clip-rule="evenodd" fill="none" stroke="#737270" stroke-miterlimit="10" d="M43.822,43.832
		c2.561,0,4.688,2.05,4.688,4.606c0,2.64-2.126,4.684-4.688,4.684c-2.556,0-4.687-2.044-4.687-4.684
		C39.135,45.882,41.266,43.832,43.822,43.832L43.822,43.832z"/>
	<path fill-rule="evenodd" clip-rule="evenodd" fill="none" stroke="#737270" stroke-miterlimit="10" d="M51.373,56.775
		c2.552,0,4.683,2.131,4.683,4.686c0,2.56-2.131,4.688-4.683,4.688c-2.56,0-4.691-2.046-4.691-4.688
		C46.767,58.906,48.813,56.775,51.373,56.775L51.373,56.775z"/>
	<path fill-rule="evenodd" clip-rule="evenodd" fill="none" stroke="#737270" stroke-miterlimit="10" d="M45.7,71.131
		c2.556,0,4.681,2.047,4.681,4.6c0,2.556-2.125,4.688-4.681,4.688c-2.557,0-4.688-2.132-4.688-4.688
		C41.012,73.178,43.143,71.131,45.7,71.131L45.7,71.131z"/>
</g>
</svg>
