<?xml version="1.0" encoding="utf-8"?>
<!-- Generator: Adobe Illustrator 16.0.0, SVG Export Plug-In . SVG Version: 6.00 Build 0)  -->
<!DOCTYPE svg PUBLIC "-//W3C//DTD SVG 1.1//EN" "http://www.w3.org/Graphics/SVG/1.1/DTD/svg11.dtd">
<svg version="1.1" id="圖層_1" xmlns="http://www.w3.org/2000/svg" xmlns:xlink="http://www.w3.org/1999/xlink" x="0px" y="0px"
	 width="100px" height="100px" viewBox="0 0 100 100" enable-background="new 0 0 100 100" xml:space="preserve">
<g display="none">
	<path display="inline" fill-rule="evenodd" clip-rule="evenodd" fill="#737270" d="M72.344,35.748l-4.438,59.412
		c-0.121,1.439-1.318,2.765-2.879,2.765h-27.73c-1.56,0-2.758-1.325-2.879-2.765l-4.56-59.412h-0.605c-1.796,0-3.472,0-3.357-0.239
		l5.522-6.002c0.236-0.242,1.561-0.242,3.363-0.242h32.761c1.809,0,3.127,0,3.368,0.242l5.517,6.002
		c0,0.239-1.561,0.239-3.363,0.239H72.344z"/>
	<path display="inline" fill-rule="evenodd" clip-rule="evenodd" fill="#737270" d="M36.939,23.025h28.323
		c1.445,0,2.521,1.198,2.521,2.516l0,0c0,1.445-1.076,2.524-2.521,2.524H36.939c-1.324,0-2.401-1.079-2.401-2.524l0,0
		C34.539,24.223,35.616,23.025,36.939,23.025L36.939,23.025z"/>
	<path display="inline" fill-rule="evenodd" clip-rule="evenodd" fill="#737270" d="M60.943,88.083
		c-0.121,1.078-0.962,2.033-2.038,2.033H43.423c-1.088,0-1.923-0.955-2.044-2.033l-4.318-48.256h28.202L60.943,88.083z"/>
	<path display="inline" fill-rule="evenodd" clip-rule="evenodd" fill="#737270" d="M49.658,22.306l3.847-14.403
		c0.241-0.602,0.719-1.083,1.439-1.203l12.598-4.563c0.847-0.236,1.809,0.239,2.159,1.085l0,0c0.242,0.841-0.236,1.796-1.076,2.159
		l-12.12,4.321l-3.363,12.604H49.658z"/>
	<path display="inline" fill="#FFFFFF" d="M62.142,88.563c-0.115,0.837-0.472,1.439-0.956,2.036l0,0
		c-0.478,0.48-1.204,0.718-1.923,0.718l0,0H43.06l0,0c-0.725,0-1.445-0.237-1.917-0.84c-0.483-0.475-0.846-1.198-0.961-1.914l0,0
		L35.616,39.23v-0.725h0.719h29.652h0.721v0.725L62.142,88.563L62.142,88.563z M60.104,89.519c0.362-0.239,0.483-0.716,0.604-1.079
		l4.438-48.489H37.176l4.439,48.489h0.121c0,0.48,0.121,0.84,0.363,1.079c0.236,0.241,0.605,0.363,0.961,0.363l0,0h16.203l0,0
		C59.625,89.882,59.867,89.76,60.104,89.519L60.104,89.519z"/>
	<path display="inline" fill-rule="evenodd" clip-rule="evenodd" fill="#FFFFFF" d="M46.405,43.541c2.914,0,5.332,2.332,5.332,5.242
		c0,3-2.418,5.326-5.332,5.326c-2.907,0-5.326-2.326-5.326-5.326C41.08,45.872,43.498,43.541,46.405,43.541L46.405,43.541z"/>
	<path display="inline" fill-rule="evenodd" clip-rule="evenodd" fill="#FFFFFF" d="M54.996,58.26c2.907,0,5.326,2.427,5.326,5.334
		c0,2.912-2.419,5.332-5.326,5.332c-2.913,0-5.338-2.326-5.338-5.332C49.762,60.687,52.083,58.26,54.996,58.26L54.996,58.26z"/>
	<path display="inline" fill-rule="evenodd" clip-rule="evenodd" fill="#FFFFFF" d="M48.542,74.592c2.908,0,5.326,2.33,5.326,5.23
		c0,2.912-2.418,5.334-5.326,5.334s-5.332-2.422-5.332-5.334C43.21,76.922,45.634,74.592,48.542,74.592L48.542,74.592z"/>
</g>
<g>
	<path fill-rule="evenodd" clip-rule="evenodd" fill="#737270" d="M63.521,37.033l-3.899,52.179
		c-0.106,1.265-1.158,2.428-2.528,2.428H32.74c-1.37,0-2.422-1.163-2.528-2.428l-4.005-52.179h-0.531c-1.578,0-3.049,0-2.948-0.21
		l4.85-5.271c0.208-0.212,1.371-0.212,2.953-0.212h28.774c1.588,0,2.746,0,2.958,0.212l4.845,5.271c0,0.21-1.37,0.21-2.953,0.21
		H63.521z"/>
	<path fill-rule="evenodd" clip-rule="evenodd" fill="#737270" d="M32.426,25.86h24.875c1.27,0,2.215,1.052,2.215,2.209l0,0
		c0,1.27-0.945,2.218-2.215,2.218H32.426c-1.163,0-2.109-0.948-2.109-2.218l0,0C30.317,26.912,31.263,25.86,32.426,25.86
		L32.426,25.86z"/>
	<path fill-rule="evenodd" clip-rule="evenodd" fill="#737270" d="M53.508,82.997c-0.105,0.948-0.844,1.788-1.789,1.788H38.121
		c-0.956,0-1.689-0.84-1.795-1.788l-3.792-42.381h24.768L53.508,82.997z"/>
	<path fill-rule="evenodd" clip-rule="evenodd" fill="#737270" d="M43.597,25.228l3.378-12.65c0.212-0.528,0.632-0.951,1.264-1.057
		l11.064-4.008c0.743-0.208,1.588,0.21,1.896,0.953l0,0c0.212,0.738-0.207,1.578-0.946,1.896L49.61,14.158l-2.954,11.069H43.597z"/>
	<path fill="#FFFFFF" d="M54.561,83.42c-0.102,0.735-0.415,1.264-0.84,1.787l0,0c-0.42,0.423-1.057,0.633-1.689,0.633l0,0H37.802
		l0,0c-0.637,0-1.269-0.21-1.684-0.738c-0.425-0.418-0.743-1.053-0.844-1.682l0,0l-4.01-43.328v-0.637h0.632h26.043h0.632v0.637
		L54.561,83.42L54.561,83.42z M52.77,84.259c0.319-0.21,0.426-0.629,0.531-0.948L57.2,40.724H32.634l3.899,42.586h0.106
		c0,0.423,0.106,0.738,0.319,0.948c0.207,0.213,0.531,0.319,0.844,0.319l0,0h14.229l0,0C52.351,84.578,52.563,84.472,52.77,84.259
		L52.77,84.259z"/>
	<path fill-rule="evenodd" clip-rule="evenodd" fill="#FFFFFF" d="M40.74,43.877c2.559,0,4.683,2.048,4.683,4.604
		c0,2.635-2.124,4.678-4.683,4.678c-2.554,0-4.678-2.043-4.678-4.678C36.062,45.925,38.186,43.877,40.74,43.877L40.74,43.877z"/>
	<path fill-rule="evenodd" clip-rule="evenodd" fill="#FFFFFF" d="M48.285,56.806c2.554,0,4.678,2.131,4.678,4.685
		c0,2.557-2.125,4.683-4.678,4.683c-2.559,0-4.688-2.043-4.688-4.683C43.688,58.937,45.726,56.806,48.285,56.806L48.285,56.806z"/>
	<path fill-rule="evenodd" clip-rule="evenodd" fill="#FFFFFF" d="M42.616,71.149c2.554,0,4.678,2.045,4.678,4.594
		c0,2.557-2.124,4.686-4.678,4.686c-2.554,0-4.683-2.129-4.683-4.686C37.933,73.194,40.062,71.149,42.616,71.149L42.616,71.149z"/>
</g>
</svg>
