<?xml version="1.0" encoding="utf-8"?>
<!-- Generator: Adobe Illustrator 16.0.0, SVG Export Plug-In . SVG Version: 6.00 Build 0)  -->
<!DOCTYPE svg PUBLIC "-//W3C//DTD SVG 1.1//EN" "http://www.w3.org/Graphics/SVG/1.1/DTD/svg11.dtd">
<svg version="1.1" id="圖層_1" xmlns="http://www.w3.org/2000/svg" xmlns:xlink="http://www.w3.org/1999/xlink" x="0px" y="0px"
	 width="100px" height="100px" viewBox="0 0 100 100" enable-background="new 0 0 100 100" xml:space="preserve">
<g display="none">
	<path display="inline" fill-rule="evenodd" clip-rule="evenodd" fill="#737270" d="M72.344,35.748l-4.438,59.412
		c-0.121,1.439-1.318,2.765-2.879,2.765h-27.73c-1.56,0-2.758-1.325-2.879-2.765l-4.56-59.412h-0.605c-1.796,0-3.472,0-3.357-0.239
		l5.522-6.002c0.236-0.242,1.561-0.242,3.363-0.242h32.761c1.809,0,3.127,0,3.368,0.242l5.517,6.002
		c0,0.239-1.561,0.239-3.363,0.239H72.344z"/>
	<path display="inline" fill-rule="evenodd" clip-rule="evenodd" fill="#737270" d="M36.939,23.025h28.323
		c1.445,0,2.521,1.198,2.521,2.516l0,0c0,1.445-1.076,2.524-2.521,2.524H36.939c-1.324,0-2.401-1.079-2.401-2.524l0,0
		C34.539,24.223,35.616,23.025,36.939,23.025L36.939,23.025z"/>
	<path display="inline" fill-rule="evenodd" clip-rule="evenodd" fill="#737270" d="M60.943,88.083
		c-0.121,1.078-0.962,2.033-2.038,2.033H43.423c-1.088,0-1.923-0.955-2.044-2.033l-4.318-48.256h28.202L60.943,88.083z"/>
	<path display="inline" fill-rule="evenodd" clip-rule="evenodd" fill="#737270" d="M49.658,22.306l3.847-14.403
		c0.241-0.602,0.719-1.083,1.439-1.203l12.598-4.563c0.847-0.236,1.809,0.239,2.159,1.085l0,0c0.242,0.841-0.236,1.796-1.076,2.159
		l-12.12,4.321l-3.363,12.604H49.658z"/>
	<path display="inline" fill="#FFFFFF" d="M62.142,88.563c-0.115,0.837-0.472,1.439-0.956,2.036l0,0
		c-0.478,0.48-1.204,0.718-1.923,0.718l0,0H43.06l0,0c-0.725,0-1.445-0.237-1.917-0.84c-0.483-0.475-0.846-1.198-0.961-1.914l0,0
		L35.616,39.23v-0.725h0.719h29.652h0.721v0.725L62.142,88.563L62.142,88.563z M60.104,89.519c0.362-0.239,0.483-0.716,0.604-1.079
		l4.438-48.489H37.176l4.439,48.489h0.121c0,0.48,0.121,0.84,0.363,1.079c0.236,0.241,0.605,0.363,0.961,0.363l0,0h16.203l0,0
		C59.625,89.882,59.867,89.76,60.104,89.519L60.104,89.519z"/>
	<path display="inline" fill-rule="evenodd" clip-rule="evenodd" fill="#FFFFFF" d="M46.405,43.541c2.914,0,5.332,2.332,5.332,5.242
		c0,3-2.418,5.326-5.332,5.326c-2.907,0-5.326-2.326-5.326-5.326C41.08,45.872,43.498,43.541,46.405,43.541L46.405,43.541z"/>
	<path display="inline" fill-rule="evenodd" clip-rule="evenodd" fill="#FFFFFF" d="M54.996,58.26c2.907,0,5.326,2.427,5.326,5.334
		c0,2.912-2.419,5.332-5.326,5.332c-2.913,0-5.338-2.326-5.338-5.332C49.762,60.687,52.083,58.26,54.996,58.26L54.996,58.26z"/>
	<path display="inline" fill-rule="evenodd" clip-rule="evenodd" fill="#FFFFFF" d="M48.542,74.592c2.908,0,5.326,2.33,5.326,5.23
		c0,2.912-2.418,5.334-5.326,5.334s-5.332-2.422-5.332-5.334C43.21,76.922,45.634,74.592,48.542,74.592L48.542,74.592z"/>
</g>
<g>
	<path fill-rule="evenodd" clip-rule="evenodd" fill="#737270" d="M47.334,91.287L35.268,56.566
		c-4.061-11.453-8.123-23.025-12.188-34.603c19.827-8.126,39.036-8.744,57.383,0L63.837,56.566L47.334,91.287z"/>
	<path fill-rule="evenodd" clip-rule="evenodd" fill="#737270" d="M20.865,17.532c19.7-8.372,43.344-9.604,62.548-0.495l-2.58,4.189
		c-19.09-9.113-38.666-8.374-58.37,0L20.865,17.532z"/>
	<path fill-rule="evenodd" clip-rule="evenodd" fill="#FFFFFF" d="M55.341,24.552l1.724,1.478l-3.816,4.555l-1.725-1.6
		L55.341,24.552z M34.659,27.01l2.21-0.859l1.972,5.541l-2.093,0.742L34.659,27.01z M62.482,32.434l-0.367-2.22l5.66-1.105
		l0.497,2.212L62.482,32.434z M50.66,58.412l1.109,1.972l-5.172,2.707l-1.105-1.969L50.66,58.412z M55.093,38.96l1.972-1.356
		l3.322,4.803l-1.842,1.354L55.093,38.96z M41.302,45.357l1.85-1.351l3.318,4.803l-1.841,1.229L41.302,45.357z M48.323,34.279
		l1.848,1.472l-3.822,4.438l-1.719-1.478L48.323,34.279z"/>
</g>
</svg>
